<svg width="14" height="16" viewBox="0 0 14 16" fill="none" xmlns="http://www.w3.org/2000/svg">
<path fill-rule="evenodd" clip-rule="evenodd" d="M2.31049 3.35578C3.64686 3.22082 4.98338 3.15332 6.32001 3.15332C8.56359 3.15332 10.8134 3.26751 13.0493 3.48909C13.3241 3.51632 13.5248 3.76117 13.4976 4.03596C13.4703 4.31076 13.2255 4.51145 12.9507 4.48422C10.7466 4.26579 8.52975 4.15332 6.32001 4.15332C5.01687 4.15332 3.71364 4.21913 2.41026 4.35079L2.40879 4.35093L1.04879 4.48427C0.773967 4.51121 0.529335 4.31026 0.502391 4.03544C0.475448 3.76061 0.676395 3.51598 0.95122 3.48904L2.31049 3.35578Z" fill="black"/>
<path fill-rule="evenodd" clip-rule="evenodd" d="M5.3064 2.52308L5.15977 3.39618C5.11403 3.66851 4.85619 3.8522 4.58386 3.80647C4.31154 3.76073 4.12784 3.50289 4.17358 3.23056L4.32025 2.35723C4.32281 2.34202 4.32545 2.32609 4.32812 2.30996C4.37402 2.0327 4.44137 1.62596 4.7125 1.3185C5.02854 0.960119 5.51074 0.833374 6.12667 0.833374H7.87334C8.49677 0.833374 8.97849 0.970307 9.29265 1.33234C9.56415 1.64521 9.62981 2.05341 9.67365 2.32598C9.67579 2.33924 9.67787 2.35218 9.67992 2.36478L9.82633 3.22994C9.87241 3.50222 9.68904 3.76029 9.41677 3.80636C9.1445 3.85244 8.88643 3.66907 8.84035 3.3968L8.69318 2.52717C8.63742 2.18515 8.60214 2.06239 8.53737 1.98774C8.50153 1.94644 8.37658 1.83337 7.87334 1.83337H6.12667C5.61594 1.83337 5.49481 1.9433 5.46252 1.97991C5.40111 2.04955 5.36645 2.16655 5.3064 2.52308Z" fill="black"/>
<path fill-rule="evenodd" clip-rule="evenodd" d="M11.5989 5.59444C11.8744 5.61223 12.0834 5.85004 12.0656 6.12561L11.6321 12.8417L11.6312 12.8543C11.6137 13.1052 11.5943 13.381 11.5427 13.6376C11.4891 13.9038 11.3946 14.1846 11.2032 14.4338C10.8024 14.9556 10.1204 15.1667 9.14 15.1667H4.86C3.87963 15.1667 3.19759 14.9556 2.7968 14.4338C2.6054 14.1846 2.51094 13.9038 2.45735 13.6376C2.40566 13.381 2.38634 13.1052 2.36878 12.8543L2.3677 12.8389L1.93438 6.12561C1.91659 5.85004 2.12556 5.61223 2.40113 5.59444C2.6767 5.57665 2.91451 5.78563 2.9323 6.06119L3.36545 12.7718C3.36548 12.7722 3.36551 12.7727 3.36554 12.7732C3.38436 13.0417 3.40028 13.2546 3.43766 13.4402C3.47407 13.621 3.52461 13.7397 3.58987 13.8247C3.70242 13.9712 3.98038 14.1667 4.86 14.1667H9.14C10.0196 14.1667 10.2976 13.9712 10.4101 13.8247C10.4754 13.7397 10.5259 13.621 10.5623 13.4402C10.5997 13.2546 10.6156 13.0417 10.6345 12.7732C10.6345 12.7727 10.6345 12.7722 10.6346 12.7718L11.0677 6.06119C11.0855 5.78563 11.3233 5.57665 11.5989 5.59444Z" fill="black"/>
<path fill-rule="evenodd" clip-rule="evenodd" d="M5.38667 11C5.38667 10.7239 5.61053 10.5 5.88667 10.5H8.10667C8.38282 10.5 8.60667 10.7239 8.60667 11C8.60667 11.2761 8.38282 11.5 8.10667 11.5H5.88667C5.61053 11.5 5.38667 11.2761 5.38667 11Z" fill="black"/>
<path fill-rule="evenodd" clip-rule="evenodd" d="M4.83334 8.33337C4.83334 8.05723 5.0572 7.83337 5.33334 7.83337H8.66668C8.94282 7.83337 9.16668 8.05723 9.16668 8.33337C9.16668 8.60952 8.94282 8.83337 8.66668 8.83337H5.33334C5.0572 8.83337 4.83334 8.60952 4.83334 8.33337Z" fill="black"/>
</svg>
